<?xml version="1.0" encoding="UTF-8" standalone="no"?>
<!-- Created with Inkscape (http://www.inkscape.org/) -->

<svg
   xmlns:dc="http://purl.org/dc/elements/1.1/"
   xmlns:cc="http://creativecommons.org/ns#"
   xmlns:rdf="http://www.w3.org/1999/02/22-rdf-syntax-ns#"
   xmlns:svg="http://www.w3.org/2000/svg"
   xmlns="http://www.w3.org/2000/svg"
   xmlns:sodipodi="http://sodipodi.sourceforge.net/DTD/sodipodi-0.dtd"
   xmlns:inkscape="http://www.inkscape.org/namespaces/inkscape"
   width="297mm"
   height="210mm"
   viewBox="0 0 297 210"
   version="1.1"
   id="svg8"
   inkscape:version="0.92.5 (2060ec1f9f, 2020-04-08)"
   sodipodi:docname="DataFlowDeltaChat.svg">
  <defs
     id="defs2" />
  <sodipodi:namedview
     id="base"
     pagecolor="#ffffff"
     bordercolor="#666666"
     borderopacity="1.0"
     inkscape:pageopacity="0.0"
     inkscape:pageshadow="2"
     inkscape:zoom="1.6311517"
     inkscape:cx="476.0757"
     inkscape:cy="403.67656"
     inkscape:document-units="mm"
     inkscape:current-layer="layer1"
     showgrid="false"
     showguides="false"
     inkscape:window-width="3072"
     inkscape:window-height="1614"
     inkscape:window-x="0"
     inkscape:window-y="25"
     inkscape:window-maximized="1" />
  <metadata
     id="metadata5">
    <rdf:RDF>
      <cc:Work
         rdf:about="">
        <dc:format>image/svg+xml</dc:format>
        <dc:type
           rdf:resource="http://purl.org/dc/dcmitype/StillImage" />
        <dc:title></dc:title>
      </cc:Work>
    </rdf:RDF>
  </metadata>
  <g
     inkscape:label="Ebene 1"
     inkscape:groupmode="layer"
     id="layer1"
     transform="translate(0,-87)">
    <path
       id="path3723"
       d="m 16.494167,113.43609 c 0.248826,-1.47943 0.587389,-2.94267 0.977381,-4.39084 0.293472,-1.08567 0.587761,-2.18805 1.146593,-3.17144 0.26857,-0.31061 0.347187,-0.44918 0.715847,-0.66799 2.046909,-1.21493 2.26974,-1.44624 4.112854,-1.8899 0.702513,-0.13208 1.415479,-0.29132 2.133558,-0.3116 0.287421,-0.008 0.608694,0.0294 0.895321,0.0558 0.599758,0.0215 1.153613,0.18258 1.703605,0.40648 0.947248,0.41937 2.006912,0.37455 3.020708,0.41396 1.575295,0.0528 3.151195,0.021 4.725614,0.0962 0.807062,0.0197 1.603151,0.0826 2.396583,0.22964 0.583584,0.15533 1.183804,0.22414 1.759469,0.40694 0.5246,0.24107 1.086868,0.37317 1.623525,0.58117 0.439825,0.20171 0.889328,0.39357 1.071393,0.87963 0.04585,0.1224 0.0643,0.25338 0.09645,0.38007 0.08674,0.87627 -0.141944,1.75472 -0.329795,2.60658 -0.182555,0.82854 -0.420137,1.6455 -0.671375,2.45582 -0.282969,0.85088 -0.545685,1.70783 -0.813313,2.56355 -0.05992,0.17411 -0.114634,0.35009 -0.179753,0.52233 -0.178051,0.47093 -0.226184,0.51815 -0.411766,0.97481 -0.195881,0.482 -0.346525,0.98049 -0.511458,1.4735 -0.398066,1.1654 -0.649766,2.37173 -0.927166,3.56916 -0.2277,0.9629 -0.363794,1.94057 -0.609447,2.89921 -0.273902,0.96042 -0.625191,1.89718 -0.992798,2.82515 -0.315503,0.84791 -0.670952,1.67461 -1.052825,2.49427 -0.354814,0.70449 -0.656989,1.42276 -0.849834,2.18805 -0.129235,0.8278 -0.395345,1.62217 -0.619889,2.42643 -0.211582,0.87762 -0.431067,1.75349 -0.669288,2.62431 -0.27546,1.16166 -0.700857,2.27601 -1.276757,3.3201 -0.354282,0.6994 -0.859269,1.28651 -1.417773,1.82807 -1.405972,1.1967 -2.70743,1.75885 -4.416866,1.86162 -1.256947,0.0275 -2.517538,0.0862 -3.772436,-0.006 -1.195323,-0.10519 -2.360154,-0.40479 -3.543352,-0.58763 -0.17339,-0.0211 -0.346478,-0.0448 -0.52017,-0.0633 -0.169687,-0.018 -0.340836,-0.0225 -0.509844,-0.046 -0.753534,-0.10496 -1.499138,-0.32076 -2.242325,-0.48126 -0.776741,-0.22637 -1.590419,-0.35701 -2.345953,-0.65428 -0.370393,-0.14573 -0.576448,-0.27149 -0.920864,-0.45954 -0.341477,-0.24167 -0.486359,-0.29983 -0.730672,-0.65572 -0.165872,-0.24163 -0.355151,-0.70509 -0.472484,-0.9756 -0.258849,-0.59677 -0.149742,-0.32831 -0.38421,-0.96976 -0.349516,-1.2953 -0.500535,-2.65729 -0.484963,-3.99927 0.0038,-0.32923 0.034,-0.65763 0.05101,-0.98644 0.02878,-1.22026 0.416075,-2.36746 0.82067,-3.50404 0.404924,-1.13751 0.316517,-0.88484 0.766488,-2.04098 0.920001,-2.11118 1.872743,-4.20772 2.803764,-6.31402 0.723832,-1.56316 1.320939,-3.17369 1.773697,-4.83481 0.222932,-0.94645 0.463315,-1.88806 0.641655,-2.84433 0.01971,-0.12432 0.03942,-0.24864 0.05913,-0.37296 0,0 2.156851,-1.05667 2.156851,-1.05667 v 0 c -0.02002,0.12675 -0.04004,0.2535 -0.06007,0.38025 -0.176491,0.96589 -0.417085,1.9163 -0.648592,2.86979 -0.456581,1.6771 -1.06182,3.30307 -1.790103,4.88196 -0.935288,2.10311 -1.887236,4.19866 -2.812549,6.30621 -0.511874,1.3136 -0.300269,0.74094 -0.758013,2.02857 -0.397666,1.11864 -0.807688,2.24359 -0.850728,3.44459 -0.01926,0.32248 -0.05258,0.64442 -0.05776,0.96743 -0.02111,1.31381 0.137569,2.64847 0.47828,3.91607 0.240328,0.65071 0.117405,0.34355 0.379711,0.95695 0.108246,0.25313 0.274411,0.67764 0.435162,0.90581 0.219287,0.31125 0.378765,0.37834 0.687052,0.58757 0.370253,0.19658 0.49315,0.27647 0.893742,0.42695 0.752775,0.28278 1.55208,0.43074 2.32681,0.63671 0.564448,0.12063 1.127166,0.26331 1.694559,0.36922 0.578333,0.10795 0.480695,0.07 1.051705,0.13759 0.174843,0.0207 0.349014,0.0467 0.523521,0.0701 1.173825,0.19393 2.332869,0.49087 3.523388,0.57365 1.25224,0.0639 2.508995,0.0349 3.760908,-0.0278 0.435528,-0.0448 0.858404,-0.0919 1.279144,-0.21976 0.133255,-0.0405 0.509202,-0.21771 0.393719,-0.13986 -0.451019,0.30405 -2.50109,1.51612 -1.403834,0.83189 0.57255,-0.51522 1.097775,-1.0825 1.461373,-1.76807 0.222835,-0.3793 0.360418,-0.59096 0.543256,-0.99866 0.326022,-0.72697 0.562702,-1.49709 0.758359,-2.26767 0.241747,-0.86691 0.453017,-1.74206 0.6561,-2.61863 0.223304,-0.80326 0.509347,-1.59173 0.628886,-2.42046 0.174654,-0.78202 0.454237,-1.51888 0.824767,-2.23032 0.17921,-0.38275 0.382389,-0.75864 0.547201,-1.14769 0.186594,-0.44048 0.313229,-0.90585 0.519641,-1.3386 0.374007,-0.91644 0.720299,-1.84639 1.000938,-2.79581 0.05784,-0.21472 0.17821,-0.65171 0.224366,-0.8643 0.146664,-0.67553 0.210045,-1.36857 0.399524,-2.03574 0.293658,-1.19784 0.522499,-2.41396 0.91355,-3.58657 0.167572,-0.49586 0.306708,-1.00496 0.500753,-1.49141 0.129443,-0.3245 0.294439,-0.63412 0.422381,-0.9592 0.0664,-0.16872 0.119253,-0.34246 0.178877,-0.51368 0.265663,-0.85563 0.520787,-1.71374 0.808913,-2.56225 0.256665,-0.80308 0.487908,-1.61538 0.676921,-2.43674 0.09988,-0.42771 0.19217,-0.85213 0.266975,-1.28504 0.03081,-0.17827 0.120179,-0.65662 0.128402,-0.84737 0.0054,-0.12502 -0.01228,-0.24998 -0.01841,-0.37497 -0.02379,-0.10803 -0.03484,-0.21968 -0.07136,-0.32411 -0.147323,-0.42127 -0.613669,-0.55971 -0.979329,-0.73179 -0.536696,-0.19542 -1.088498,-0.34667 -1.616948,-0.56558 -0.571987,-0.16048 -1.161248,-0.2486 -1.738447,-0.38878 -0.782259,-0.13832 -1.571607,-0.17453 -2.36419,-0.21452 -1.565534,-0.0802 -3.133516,-0.059 -4.700071,-0.11136 -1.051656,-0.0399 -2.134259,-0.001 -3.112513,-0.44802 -0.534097,-0.20327 -1.076225,-0.33286 -1.651305,-0.3565 -1.003313,-0.0698 -1.99541,0.0743 -2.971378,0.31064 -0.413812,0.10853 -0.675292,0.16667 -1.074484,0.31076 -0.163751,0.0591 -0.627228,0.29524 -0.483986,0.1963 0.501073,-0.34611 1.040246,-0.6336 1.564849,-0.94289 0.14483,-0.0854 -0.29217,0.16846 -0.425343,0.27108 -0.116727,0.09 -0.213974,0.20268 -0.320961,0.30402 -0.07567,0.11338 -0.161843,0.22042 -0.226998,0.34015 -0.07028,0.12915 -0.119536,0.26869 -0.177776,0.4037 -0.33259,0.77101 -0.590029,1.56765 -0.801792,2.3803 -0.39559,1.43169 -0.740252,2.88293 -0.946882,4.35472 0,0 -2.164675,1.05289 -2.164675,1.05289 z"
       inkscape:connector-curvature="0"
       style="stroke-width:0.26458332" />
    <path
       id="path3729"
       d="m 18.35172,273.05368 c 3.172411,-1.98931 6.159565,-4.25233 9.140531,-6.51308 1.668549,-1.27045 1.287486,-0.96477 2.804199,-2.17369 0.312373,-0.24898 1.334379,-1.09828 1.749994,-1.35079 0.877649,-0.5332 1.766631,-1.04911 2.674049,-1.52991 0.182842,-0.0969 0.392099,-0.13238 0.58815,-0.19857 1.086482,-0.30886 2.134129,0.1955 3.186708,0.42067 0.26762,0.0573 3.578857,0.67525 3.717588,0.70122 4.242052,0.77633 8.53906,1.16718 12.813033,1.7167 2.323761,0.32421 4.640982,0.69991 6.975118,0.94384 1.158502,0.15274 2.314551,0.01 3.470066,-0.0822 0.545883,-0.0242 1.086532,-0.10822 1.633574,-0.0658 0.03921,0.003 0.387308,0.0194 0.435938,0.12702 0.04159,0.092 0.0149,0.20144 0.02233,0.30216 -0.07243,0.0786 -0.139057,0.16299 -0.217297,0.23583 -0.363657,0.33853 -0.783159,0.62248 -1.155599,0.95209 -0.550024,0.48679 -0.698283,0.64921 -1.239891,1.18444 -0.909137,0.94811 -1.870723,1.84841 -2.713209,2.85867 -0.532061,0.63801 -0.667385,0.85474 -1.155803,1.53771 -0.975233,1.38676 -1.86399,2.83101 -2.789288,4.25088 -0.47116,0.69595 -0.831141,1.47202 -1.353405,2.1318 -0.901874,0.81303 -2.028812,1.61107 -3.275396,1.63992 -0.445011,0.0103 -0.721119,-0.0457 -1.176975,-0.10408 -1.830313,-0.28962 -3.649763,-0.64251 -5.471292,-0.98266 -2.342261,-0.42092 -4.71928,-0.56329 -7.08606,-0.77043 -3.130844,-0.35156 -6.269668,-0.61222 -9.397244,-0.99424 -2.675471,-0.40139 -5.342502,-0.85189 -8.016417,-1.26316 -1.40743,-0.21688 -2.815565,-0.43693 -4.211287,-0.72114 -0.156841,-0.0316 -0.313683,-0.0632 -0.470525,-0.0948 0,0 1.964977,-1.36731 1.964977,-1.36731 v 0 c 0.154865,0.0329 0.309729,0.0657 0.464594,0.0986 1.383629,0.28733 2.781728,0.50078 4.175244,0.7332 2.655778,0.43423 5.307091,0.89666 7.970003,1.28546 3.135077,0.37694 6.27888,0.65055 9.420154,0.96815 2.37513,0.20228 4.758277,0.3618 7.108142,0.78274 1.825474,0.33703 3.650549,0.68472 5.488191,0.9486 0.538036,0.0465 1.045647,0.1063 1.575311,-0.0317 0.0961,-0.0251 0.362828,-0.15769 0.279069,-0.10434 -3.513748,2.23836 -2.146776,1.31061 -1.559779,0.90915 0.07453,-0.0713 0.159916,-0.13264 0.22357,-0.21375 0.07058,-0.0899 0.115364,-0.19743 0.175458,-0.29468 0.329965,-0.53398 0.671465,-1.06099 0.993423,-1.59997 0.94474,-1.41832 1.838855,-2.86995 2.812243,-4.26922 0.461733,-0.66216 0.635143,-0.93876 1.142376,-1.55832 0.834895,-1.0198 1.800423,-1.91834 2.705928,-2.87278 0.80754,-0.81869 1.623526,-1.64281 2.576965,-2.29425 0.05742,0.018 0.114993,0.0355 0.172254,0.054 0.03389,0.0109 -0.06696,-0.0257 -0.10211,-0.0314 -0.08574,-0.0139 -0.172413,-0.0228 -0.259165,-0.027 -0.536686,-0.0263 -1.069755,0.0468 -1.604618,0.0765 -1.164596,0.0984 -2.331038,0.21052 -3.496596,0.0439 -2.305013,-0.2861 -4.593683,-0.68524 -6.893838,-1.00641 -4.270057,-0.57926 -8.567245,-0.9637 -12.810511,-1.73249 -1.259972,-0.2274 -2.525715,-0.42376 -3.781689,-0.67229 -1.062718,-0.21029 -2.06338,-0.64856 -3.142081,-0.28166 -0.185991,0.0729 -0.717793,0.33867 -0.557974,0.21879 0.424558,-0.31844 0.881943,-0.5988 1.363117,-0.8227 0.293349,-0.1365 -0.535911,0.36319 -0.79425,0.55799 -1.299684,0.98006 -2.520482,2.06473 -3.856453,2.99803 -2.943233,2.23364 -5.888093,4.47338 -8.996579,6.47504 0,0 -2.236975,0.87174 -2.236975,0.87174 z"
       inkscape:connector-curvature="0"
       style="stroke-width:0.26458332" />
    <path
       id="path3731"
       d="m 34.54891,260.86264 c 0.881954,-3.19365 1.251096,-6.49872 1.574898,-9.78708 0.09794,-1.27697 0.147095,-2.55666 0.0074,-3.83095 0,0 2.11278,-1.10335 2.11278,-1.10335 v 0 c 0.11992,1.3033 0.05118,2.60898 -0.06124,3.91173 -0.353875,3.28309 -0.745988,6.56538 -1.452423,9.795 0,0 -2.181439,1.01465 -2.181439,1.01465 z"
       inkscape:connector-curvature="0"
       style="stroke-width:0.26458332" />
    <path
       id="path3733"
       d="m 39.573467,245.84841 c 3.041205,0.61823 6.147257,0.76485 9.233847,1.001 4.293864,0.44957 8.606118,0.65592 12.912471,0.94263 2.284608,0.19582 4.567989,0.38783 6.860018,0.46388 1.444162,0.0369 2.888872,0.0407 4.333396,0.0337 0.410695,-0.003 0.821397,-0.004 1.232094,-0.006 0,0 -1.9426,1.4121 -1.9426,1.4121 v 0 c -0.40808,2.6e-4 -0.816163,0.001 -1.224241,-7.9e-4 -1.434891,-0.007 -2.86993,-0.0163 -4.304159,-0.0647 -2.276039,-0.0779 -4.54043,-0.29153 -6.806639,-0.51287 -4.303752,-0.32557 -8.617112,-0.51039 -12.912413,-0.94402 -3.119871,-0.23523 -6.254985,-0.38338 -9.335508,-0.96728 0,0 1.953734,-1.358 1.953734,-1.358 z"
       inkscape:connector-curvature="0"
       style="stroke-width:0.26458332" />
    <path
       id="path3735"
       d="m 75.120287,249.18822 c -0.856646,0.98159 -1.554546,2.08373 -2.325436,3.13032 -3.194425,4.33689 1.634668,-2.29499 -1.664747,2.24687 -1.529223,2.05519 -2.784052,4.30537 -3.834067,6.63856 -0.435613,1.02155 -0.747278,2.08617 -0.943303,3.17764 0,0 -2.155042,1.05001 -2.155042,1.05001 v 0 c 0.202335,-1.11574 0.522727,-2.20316 0.961702,-3.2502 1.052195,-2.35043 2.320071,-4.61904 3.845886,-6.69584 2.383575,-3.3174 -0.666435,0.908 1.647817,-2.23815 0.760682,-1.03412 1.430091,-2.13583 2.264455,-3.11455 0,0 2.202735,-0.94466 2.202735,-0.94466 z"
       inkscape:connector-curvature="0"
       style="stroke-width:0.26458332" />
    <path
       id="path3737"
       d="m 120.29363,129.22443 c -0.0358,1.87109 -0.027,3.74268 -0.0231,5.61401 0.0132,1.67581 0.006,3.35165 -10e-4,5.02746 -0.0319,2.4573 0.0299,4.91573 -0.0446,7.37218 -0.10145,1.49075 -0.23359,2.98225 -0.51168,4.45201 -0.20028,1.05849 -0.27141,1.25048 -0.55117,2.31522 -0.65319,2.23317 -1.46128,4.4169 -2.11866,6.64856 -0.41688,1.43163 -0.81022,2.8703 -1.15667,4.32066 -0.0752,0.36603 -0.3142,0.85726 -0.14238,1.2413 0.19509,0.43608 0.91215,0.43349 1.2571,0.48602 2.34539,0.2568 4.71368,0.0828 7.03895,-0.27627 0.51677,-0.0798 1.02941,-0.18433 1.54412,-0.2765 0.4619,-0.0892 0.92378,-0.17844 1.3857,-0.26752 0.75929,-0.14642 1.73573,-0.34245 2.50555,-0.45941 1.13713,-0.17278 2.28284,-0.27523 3.42797,-0.37561 1.90298,-0.12404 3.81053,-0.11766 5.71567,-0.18893 1.25348,-0.11846 2.49707,0.0532 3.73893,0.19907 0.48905,0.009 1.15656,0.21327 1.63784,0.0654 0.0807,-0.0248 0.29341,-0.16722 0.21889,-0.12751 -0.62988,0.33568 -1.25674,0.67698 -1.88511,1.01547 0.0473,-0.101 0.11029,-0.19605 0.1419,-0.30301 0.19512,-0.65999 0.17079,-1.43318 0.19044,-2.10931 0.0219,-0.75305 0.0258,-1.59107 0.0329,-2.34016 0.0116,-1.85776 -0.004,-3.71712 0.12734,-5.57139 0.0355,-0.50148 0.19968,-2.30022 0.24483,-2.80224 0.27226,-3.20691 0.65973,-6.40268 1.16562,-9.58081 0.43713,-2.52129 1.00455,-5.0162 1.54247,-7.51701 0.21983,-1.06331 0.51431,-2.11 0.6728,-3.18519 0.0414,-0.6855 0.17567,-1.39909 0.0209,-2.07769 -0.0348,-0.0604 -0.0535,-0.13364 -0.10455,-0.18117 -0.32204,-0.30009 -1.49039,-0.40047 -1.8376,-0.44951 -0.94588,-0.13361 -1.37344,-0.17133 -2.32252,-0.27295 -3.29645,-0.27238 -6.60796,-0.28816 -9.9136,-0.31086 -1.93516,-0.0128 -3.87686,0.007 -5.80643,0.1732 -0.41839,0.036 -1.34228,0.15083 -1.78399,0.20418 -1.25197,0.14284 -2.4885,0.37883 -3.73236,0.57241 -0.74354,0.14046 -1.49923,0.20838 -2.24211,0.35003 0,0 1.92177,-1.44738 1.92177,-1.44738 v 0 c 0.74257,-0.11638 1.48965,-0.20395 2.22978,-0.33679 1.23739,-0.20357 2.47368,-0.40851 3.72033,-0.55044 2.50517,-0.27604 5.02581,-0.35752 7.54567,-0.3089 3.32304,0.0323 6.65184,0.0373 9.96646,0.30136 0.75199,0.0828 1.59136,0.17003 2.34046,0.27379 0.57555,0.0797 1.55903,0.12337 2.00482,0.59664 0.063,0.0669 0.09,0.16012 0.13504,0.24019 0.0246,0.0938 0.0589,0.18565 0.0739,0.28151 0.0934,0.59796 -0.0566,1.28083 -0.0634,1.88225 -0.13851,1.09146 -0.4713,2.14298 -0.69625,3.21787 -0.5626,2.50673 -1.18295,5.00143 -1.61273,7.53621 -0.50886,3.16836 -0.88687,6.35708 -1.14994,9.55542 -0.0224,0.24753 -0.23138,2.5485 -0.24956,2.7963 -0.13561,1.84802 -0.12249,3.70218 -0.12046,5.55396 7.9e-4,0.81826 0.005,1.52023 -0.006,2.33303 -0.009,0.71068 0.006,1.45078 -0.1179,2.15476 -0.0229,0.12987 -0.0648,0.25567 -0.0972,0.3835 -0.74398,0.47132 -1.47456,0.96446 -2.23193,1.41395 -0.37545,0.22283 -1.48518,-0.0337 -1.90971,-0.0484 -1.22807,-0.14909 -2.45905,-0.28436 -3.69829,-0.18347 -1.89883,0.0595 -3.80029,0.0528 -5.69598,0.18969 -1.13851,0.0976 -2.273,0.20603 -3.40281,0.38177 -0.80611,0.12538 -1.69208,0.30304 -2.49152,0.4534 -0.45897,0.0863 -0.9182,0.17125 -1.37731,0.25687 -2.86341,0.48601 -5.77868,0.86756 -8.68298,0.52504 -0.2676,-0.0531 -0.54382,-0.0736 -0.8028,-0.1594 -0.14171,-0.0469 -0.27011,-0.13476 -0.38234,-0.23319 -0.50395,-0.44198 -0.31712,-1.11039 -0.1413,-1.66018 0.35437,-1.45935 0.76378,-2.90487 1.18327,-4.34666 0.66061,-2.2339 1.48255,-4.41598 2.14015,-6.6511 0.10422,-0.39513 0.21733,-0.78802 0.31264,-1.18538 0.43549,-1.81557 0.63905,-3.67423 0.77095,-5.53354 0.0844,-2.45157 0.0304,-4.90517 0.033,-7.35782 -0.007,-1.67538 -0.0145,-3.35077 -0.001,-5.02615 0.004,-1.86349 0.0129,-3.72725 -0.0231,-5.5905 0,0 2.14377,-1.0923 2.14377,-1.0923 z"
       inkscape:connector-curvature="0"
       style="stroke-width:0.26458332" />
    <path
       id="path3739"
       d="m 221.51046,133.604 c -0.18329,2.01911 -0.34426,4.04784 -0.64697,6.05383 -0.1408,0.93302 -0.30631,1.86215 -0.45946,2.79322 -1.14038,6.76372 -2.06619,13.5603 -3.0552,20.347 -0.0851,0.58982 -0.34983,2.23702 -0.36786,2.9491 -0.007,0.27705 -0.11865,0.62362 0.0678,0.82864 0.26841,0.29509 0.71692,0.36651 1.10463,0.46034 1.47425,0.35679 3.41451,0.42672 4.88743,0.53445 5.09235,0.17942 10.19571,0.19882 15.28803,0.004 1.87561,-0.13356 1.00614,-0.0385 2.61109,-0.25964 0,0 -1.87759,1.40015 -1.87759,1.40015 v 0 c -1.5809,0.17707 -0.72491,0.10218 -2.56981,0.20274 -2.31195,0.061 -4.62262,0.0689 -6.93543,0.0739 -1.8258,0.004 -3.83543,0.012 -5.6645,-0.0344 -0.88316,-0.0224 -1.76561,-0.0674 -2.64841,-0.10108 -0.91243,-0.0634 -1.82784,-0.093 -2.7373,-0.19014 -0.70667,-0.0755 -2.86703,-0.20134 -3.55535,-1.00244 -0.1919,-0.22335 -0.0711,-0.5873 -0.0582,-0.88148 0.03,-0.68695 0.3494,-2.44636 0.44093,-2.99658 1.11049,-6.77569 2.10626,-13.56971 3.09208,-20.3645 0.40594,-2.89619 0.79331,-5.80213 0.94032,-8.72502 0,0 2.14377,-1.0923 2.14377,-1.0923 z"
       inkscape:connector-curvature="0"
       style="stroke-width:0.26458332" />
    <path
       id="path3741"
       d="m 224.14963,131.86575 c 2.60447,0.24537 5.2076,0.51473 7.82041,0.65933 1.77945,0.0985 2.94454,0.11191 4.70356,0.15221 2.53521,0.10298 5.06756,-0.0426 7.60075,-0.0982 0.11866,0.0101 0.72243,0.0339 0.87615,0.1347 0.63201,0.41461 0.27945,1.50906 0.18128,2.07106 -0.73427,3.18922 -1.72997,6.31164 -2.68292,9.44035 -1.28418,3.88101 -2.29498,7.84963 -3.0473,11.86663 -0.31436,1.91404 -0.67137,3.81774 -0.82819,5.75251 -0.046,0.63365 -0.0613,1.26873 -0.0752,1.90367 0,0 -2.12931,1.07814 -2.12931,1.07814 v 0 c 0.0184,-0.64128 0.0385,-1.28263 0.084,-1.92272 0.052,-0.65087 0.0656,-0.91605 0.14978,-1.57062 0.18298,-1.42196 0.52394,-2.81748 0.73122,-4.23572 0.77198,-4.03336 1.81058,-8.01658 3.0967,-11.91698 0.92657,-3.09704 1.86331,-6.19586 2.56412,-9.35365 0.0672,-0.36565 0.29134,-1.1931 0.1429,-1.56287 -0.14199,-0.35371 -0.71609,-0.23356 -0.98303,-0.28459 -2.50186,0.0315 -5.00348,0.13663 -7.50565,0.0167 -1.68114,-0.0507 -2.99524,-0.0809 -4.68963,-0.17364 -2.65598,-0.14533 -5.30343,-0.41011 -7.95864,-0.56481 0,0 1.949,-1.39143 1.949,-1.39143 z"
       inkscape:connector-curvature="0"
       style="stroke-width:0.26458332" />
    <path
       id="path3743"
       d="m 233.19839,127.9795 c -1.27671,-0.6764 -2.53181,-1.45943 -3.43881,-2.6128 -0.95785,-1.21804 -1.13548,-1.86488 -1.77393,-3.29237 -0.36104,-1.38376 -0.74473,-2.37249 -0.63536,-3.82874 0.10683,-1.42249 0.95307,-3.17463 2.059,-4.10256 0.38018,-0.31899 0.84576,-0.51946 1.26865,-0.77919 1.12336,-0.54712 2.24673,-1.09424 3.3701,-1.64136 0,0 -1.82087,1.42483 -1.82087,1.42483 v 0 c 0.20284,-0.20422 0.40569,-0.40844 0.60853,-0.61266 -0.42932,0.23644 -0.89968,0.41022 -1.28796,0.70931 -1.10368,0.85016 -2.04122,2.58108 -2.1749,3.95466 -0.13735,1.4113 0.24878,2.4187 0.59205,3.75916 0.63249,1.38939 0.80942,2.02949 1.76475,3.20228 0.91874,1.12785 2.18893,1.87141 3.47454,2.4997 0,0 -2.00579,1.31974 -2.00579,1.31974 z"
       inkscape:connector-curvature="0"
       style="stroke-width:0.26458332" />
    <path
       id="path3745"
       d="m 234.8288,109.46808 c 0.093,-0.25934 0.11725,-0.55499 0.27899,-0.77802 0.75937,-1.04708 1.87583,-1.69813 2.99651,-2.28578 1.42091,-0.74509 2.8502,-1.48277 4.33215,-2.09758 1.86635,-0.77428 2.92792,-0.79052 4.88043,-1.04956 0.69156,-0.0264 1.38283,-0.0964 2.07467,-0.0792 1.35716,0.0337 3.02536,0.274 4.21828,0.98725 0.73845,0.44153 0.94507,0.76961 1.48903,1.39115 0.57545,0.90429 0.32864,0.45525 0.75442,1.33936 0,0 -2.0681,1.17094 -2.0681,1.17094 v 0 c -0.39206,-0.8554 -0.16231,-0.42191 -0.70328,-1.29293 -0.5257,-0.60304 -0.69863,-0.89397 -1.41903,-1.31635 -1.17854,-0.69101 -2.76225,-0.91158 -4.09778,-0.94158 -0.6801,-0.0153 -1.35949,0.0536 -2.03923,0.0803 -6.12167,0.86965 1.55979,-0.34391 -4.83138,1.08449 -0.16166,0.0361 -0.33705,-0.15291 -0.48919,-0.0874 -0.86016,0.37031 -2.30549,1.27721 -2.95154,2.09671 -0.1587,0.20131 -0.17984,0.4801 -0.26977,0.72016 0,0 -2.15518,1.058 -2.15518,1.058 z"
       inkscape:connector-curvature="0"
       style="stroke-width:0.26458332" />
    <path
       id="path3747"
       d="m 261.23257,102.0865 c 2.1283,-0.95744 4.22108,-2.05134 6.51319,-2.583427 0.95967,-0.22278 1.93852,-0.371164 2.91992,-0.457944 2.62752,-0.232346 3.24337,-0.03751 5.81054,0.24939 0.81079,0.254688 1.66457,0.399739 2.43237,0.764061 1.37562,0.65274 2.57079,1.75324 3.42595,3.00039 0.69845,1.0186 1.26143,2.50857 1.60838,3.6946 0.14848,0.5075 0.23537,1.03102 0.35303,1.54654 0,0 -2.02956,1.08957 -2.02956,1.08957 v 0 c -0.10615,-0.51189 -0.17987,-1.03159 -0.31846,-1.53567 -0.3235,-1.17689 -0.85193,-2.62093 -1.54104,-3.63129 -0.83105,-1.21848 -1.99397,-2.28021 -3.33771,-2.91105 -0.75462,-0.35427 -1.59213,-0.49501 -2.38821,-0.74252 -2.5372,-0.27208 -3.16844,-0.46827 -5.76593,-0.2081 -0.98267,0.0984 -1.96107,0.26507 -2.92024,0.50035 -2.31877,0.56878 -4.44615,1.68504 -6.58966,2.69414 0,0 1.82743,-1.46904 1.82743,-1.46904 z"
       inkscape:connector-curvature="0"
       style="stroke-width:0.26458332" />
    <path
       id="path3749"
       d="m 229.1056,173.96739 c -0.1953,0.24336 -0.4132,0.4702 -0.58591,0.73008 -0.78131,1.17572 -1.5707,2.80813 -1.76972,4.20388 -0.2564,1.79822 -0.0603,3.1843 0.0637,4.98998 0.34483,1.12548 0.52616,2.31474 1.03449,3.37644 1.79925,3.75792 3.93318,6.12705 6.90208,9.07943 3.71273,3.69206 7.95997,6.83408 12.13884,9.96662 0,0 -1.77014,1.11679 -1.77014,1.11679 v 0 c -2.29409,-1.80425 -5.23431,-4.08436 -7.39351,-5.94075 -1.56842,-1.34846 -3.1422,-2.69566 -4.61604,-4.14689 -2.94221,-2.8971 -5.26277,-5.3691 -7.13839,-9.0444 -0.54064,-1.05938 -0.75117,-2.25701 -1.12676,-3.38552 -0.13,-1.66278 -0.34771,-3.35323 -0.15611,-5.02617 0.14395,-1.25679 0.50179,-1.99201 1.04022,-3.08037 0.19696,-0.39814 0.39933,-0.79443 0.62681,-1.17594 0.15628,-0.2621 0.34837,-0.50111 0.52255,-0.75167 0,0 2.2279,-0.91151 2.2279,-0.91151 z"
       inkscape:connector-curvature="0"
       style="stroke-width:0.26458332" />
    <path
       id="path3751"
       d="m 240.83995,205.52705 c -0.64465,2.23319 -0.31902,4.09425 0.14833,6.37735 0.5748,2.80807 1.13059,5.29517 3.14062,7.54895 1.29386,1.45075 3.02283,2.44489 4.53424,3.66734 5.4934,2.3849 6.85699,3.30599 12.74014,4.55393 3.51139,0.74484 8.15358,1.1128 11.78401,1.08496 3.50935,-0.0269 4.94355,-0.34094 8.25309,-0.82887 0.94541,-0.20981 1.89085,-0.41962 2.83626,-0.62944 0,0 -1.74935,1.32837 -1.74935,1.32837 v 0 c -0.93189,0.1931 -1.8638,0.3862 -2.79569,0.5793 -3.25816,0.43211 -4.70493,0.72187 -8.15359,0.70894 -3.57909,-0.0134 -8.27589,-0.43204 -11.72467,-1.1817 -5.81639,-1.2643 -7.37533,-2.24135 -12.84106,-4.57825 -1.55575,-1.22478 -3.32858,-2.21543 -4.66725,-3.67434 -2.13215,-2.32365 -2.60798,-4.672 -3.26439,-7.56591 -0.532,-2.34542 -0.91949,-4.06359 -0.42434,-6.3907 0,0 2.18365,-0.99993 2.18365,-0.99993 z"
       inkscape:connector-curvature="0"
       style="stroke-width:0.26458332" />
    <path
       id="path3753"
       d="m 284.75646,231.25675 c 1.66934,0.82622 3.49946,1.39767 5.39689,1.18154 2.14508,-0.24434 2.96265,-0.83408 4.87802,-1.74963 0.0138,-0.13224 -0.0405,-0.29167 0.041,-0.39671 0.44072,-0.56815 1.01926,-1.01706 1.48236,-1.56713 1.00298,-1.19133 1.05267,-1.4448 1.72791,-2.74201 0,0 2.10677,-0.94996 2.10677,-0.94996 v 0 c -0.22875,0.44723 -0.42105,0.91509 -0.6863,1.34171 -0.52705,0.84771 -1.81911,2.50636 -2.55844,3.08996 -1.21547,0.95947 -2.5649,1.73587 -3.84733,2.6038 -1.99012,0.91124 -2.75413,1.45942 -4.97173,1.68689 -1.30985,0.13436 -2.62734,-0.11293 -3.87393,-0.47905 -0.21103,-0.062 -1.37816,-0.54935 -1.68272,-0.67526 0,0 1.98747,-1.34415 1.98747,-1.34415 z"
       inkscape:connector-curvature="0"
       style="stroke-width:0.26458332" />
    <path
       id="path3755"
       d="m 54.97014,243.99936 c 0.740383,-1.94047 1.907129,-3.67027 3.020517,-5.409 0.442339,-0.69078 0.882351,-1.38305 1.323528,-2.07458 0.475716,-0.81331 0.965856,-1.61836 1.427147,-2.43994 1.815573,-3.23364 1.27635,-2.45527 3.112354,-5.9275 1.875774,-3.54745 3.874873,-7.02365 5.89865,-10.48775 3.966607,-6.90184 9.065501,-13.04551 13.993558,-19.26577 4.158131,-5.18679 8.05891,-10.57094 12.081116,-15.86179 1.720167,-2.27795 3.549192,-4.47182 5.44732,-6.60308 0.94757,-1.06439 2.07071,-1.94701 3.15362,-2.86622 0.6144,-0.56891 1.30958,-1.05668 1.86143,-1.69004 0.18231,-0.22686 0.093,-0.11648 0.26796,-0.33123 0,0 2.22384,-0.9454 2.22384,-0.9454 v 0 c -0.17972,0.21271 -0.0882,0.10244 -0.27416,0.33109 -0.51964,0.68471 -1.25118,1.15911 -1.87354,1.74327 -1.08364,0.91638 -2.21063,1.79177 -3.17257,2.84021 -1.96301,2.12959 -3.822969,4.35393 -5.594579,6.64492 -4.078793,5.2954 -8.004127,10.70901 -12.197932,15.91574 -4.917326,6.21613 -10.001845,12.34671 -13.983456,19.22934 -1.6969,2.88689 -2.316009,3.89369 -3.942874,6.85275 -0.658413,1.19756 -1.30728,2.40054 -1.938089,3.61287 -0.546872,1.05102 -1.051367,2.12367 -1.594636,3.17655 -1.316259,2.55098 -1.467762,2.75638 -2.852396,5.17237 -0.431061,0.68731 -0.861475,1.37503 -1.293188,2.06193 -1.071512,1.7049 -2.196967,3.40224 -2.917417,5.29422 0,0 -2.176203,1.02704 -2.176203,1.02704 z"
       inkscape:connector-curvature="0"
       style="stroke-width:0.26458332" />
    <path
       id="path3757"
       d="m 103.72747,170.82318 c 1.83669,-0.17359 3.67052,-0.4744 5.43896,-1.00675 0.33855,-0.13933 0.57789,-0.22924 0.8988,-0.39097 0.10852,-0.0547 0.42413,-0.23749 0.31894,-0.17664 -0.59154,0.34219 -2.38828,1.32822 -1.77802,1.02067 2.46516,-1.24237 1.59281,-1.82315 2.4799,-1.14225 0.007,0.14123 0.0475,0.28483 0.0208,0.42369 -0.0467,0.2426 -0.4113,0.96224 -0.50316,1.14504 -0.29974,0.5965 -0.62089,1.18195 -0.94488,1.76548 0,0 -2.17568,0.97154 -2.17568,0.97154 v 0 c 0.33015,-0.5788 0.65221,-1.16156 0.95517,-1.75522 0.10102,-0.19796 0.20118,-0.39643 0.29566,-0.59759 0.0732,-0.1559 0.12656,-0.32117 0.20733,-0.47328 0.0298,-0.0562 0.0813,-0.0979 0.12195,-0.1468 -0.61735,0.31281 2.39996,-1.37885 1.78936,-1.05305 -1.20461,0.64275 -2.27207,1.44886 -3.57166,1.8615 -1.78802,0.48855 -3.62422,0.77228 -5.46414,0.98187 0,0 1.91065,-1.42724 1.91065,-1.42724 z"
       inkscape:connector-curvature="0"
       style="stroke-width:0.26458332" />
    <path
       id="path3759"
       d="m 54.390054,240.98498 c -0.128945,0.79401 -0.575985,1.7692 -0.442119,2.57528 0.01733,0.1043 0.06529,0.20112 0.09794,0.30168 0.126315,0.0569 0.245684,0.13289 0.378947,0.17082 0.500573,0.14249 1.236162,0.21321 1.730555,0.25679 0.650734,0.0573 1.400902,0.10311 2.054124,0.0655 0.353637,-0.0204 0.704059,-0.0787 1.056087,-0.1181 1.932824,-0.29401 3.481644,-1.22578 5.161576,-2.13518 0,0 -1.844791,1.4854 -1.844791,1.4854 v 0 c -1.670394,0.90253 -3.276825,1.80205 -5.199967,2.04753 -0.357505,0.0332 -0.713796,0.0843 -1.072513,0.0995 -0.653775,0.0278 -1.420381,-0.023 -2.071232,-0.0849 -0.4713,-0.0448 -1.344962,-0.12328 -1.819365,-0.3119 -0.177914,-0.0707 -0.319839,-0.21054 -0.479758,-0.31581 -0.04051,-0.11985 -0.0977,-0.2353 -0.121513,-0.35954 -0.169299,-0.8831 0.282019,-1.76598 0.407353,-2.62423 0,0 2.164675,-1.05289 2.164675,-1.05289 z"
       inkscape:connector-curvature="0"
       style="stroke-width:0.26458332" />
    <path
       id="path3761"
       d="m 47.069803,130.43312 c 0.73859,0.037 1.47683,0.0818 2.215766,0.1111 6.926474,0.27475 13.857695,0.41683 20.784257,0.69344 4.006664,0.18664 8.020806,0.38675 12.004352,0.87543 1.841108,0.22586 2.383742,0.32849 4.17254,0.61451 3.140268,0.53155 6.291201,1.00027 9.442391,1.46231 2.229099,0.35916 4.462681,0.67616 6.716711,0.81771 1.02438,0.0923 2.05688,0.0147 3.08104,0.0869 0.65049,0.0609 1.30474,0.0609 1.95422,0.12984 0,0 -1.95883,1.39452 -1.95883,1.39452 v 0 c -0.64917,-0.0564 -1.30094,-0.0737 -1.95082,-0.12146 -1.01479,-0.0497 -2.03322,-0.0257 -3.04668,-0.11385 -2.240562,-0.16312 -4.457199,-0.50539 -6.673008,-0.87096 -3.145676,-0.45998 -6.295067,-0.90462 -9.422077,-1.48086 -1.787562,-0.29347 -2.295906,-0.39304 -4.137541,-0.62582 -3.942156,-0.4983 -7.912274,-0.74465 -11.878799,-0.94655 -7.73797,-0.34048 -15.480233,-0.52357 -23.22449,-0.6505 0,0 1.920968,-1.37578 1.920968,-1.37578 z"
       inkscape:connector-curvature="0"
       style="stroke-width:0.26458332" />
    <path
       id="path3763"
       d="m 107.44993,132.49833 c 1.2163,0.50206 2.50373,0.79128 3.73447,1.25181 0.206,0.12835 0.51704,0.24283 0.55246,0.54249 0.0465,0.39332 -0.28425,0.67321 -0.57678,0.85118 -2.40408,1.46265 -2.0337,1.26831 -3.77339,1.93446 -1.28068,0.4564 -0.65343,0.24101 -1.88104,0.64823 0,0 1.86042,-1.44531 1.86042,-1.44531 v 0 c 1.21656,-0.40717 0.594,-0.19022 1.86674,-0.6535 1.40169,-0.57225 1.28591,-0.59137 -0.28509,0.39934 -0.0392,0.0247 0.66833,-0.37086 0.70196,-0.53269 0.042,-0.20198 -0.39145,-0.3761 -0.44831,-0.40943 -1.23409,-0.46378 -2.52054,-0.77026 -3.74795,-1.25424 0,0 1.99651,-1.33234 1.99651,-1.33234 z"
       inkscape:connector-curvature="0"
       style="stroke-width:0.26458332" />
    <path
       id="path3765"
       d="m 46.744363,127.12867 c -0.814396,0.84047 -1.724848,1.62348 -2.416657,2.57537 -0.09966,0.13713 -0.179496,0.28761 -0.269245,0.43142 -0.06373,0.16401 -0.212357,0.44612 -0.158922,0.64707 0.07122,0.26783 0.422093,0.45775 0.609833,0.57884 0.625999,0.40376 0.959623,0.56572 1.633027,0.92986 0.866587,0.44187 1.780815,0.77053 2.696461,1.09167 0,0 -1.958086,1.32173 -1.958086,1.32173 v 0 c -0.91663,-0.33863 -1.831851,-0.68394 -2.704325,-1.1281 -0.478321,-0.25521 -1.216562,-0.63321 -1.682252,-0.93879 -0.29853,-0.19589 -0.621358,-0.40618 -0.741212,-0.76866 -0.08519,-0.25765 0.04739,-0.53195 0.120724,-0.76408 0.08791,-0.15546 0.162814,-0.31904 0.263742,-0.46638 0.210259,-0.30695 0.637593,-0.77178 0.881198,-1.03562 0.490188,-0.53091 0.992063,-1.05175 1.502566,-1.5631 0,0 2.223148,-0.91123 2.223148,-0.91123 z"
       inkscape:connector-curvature="0"
       style="stroke-width:0.26458332" />
    <path
       id="path3767"
       d="m 150.80226,144.47842 c 7.18671,0.0816 14.37403,0.10257 21.56116,0.10629 9.61683,0.0392 19.23383,0.006 28.85055,-0.0473 2.74398,-0.003 5.48748,-0.0165 8.22774,-0.16705 0.94935,-0.0549 1.89908,-0.10278 2.84894,-0.14781 0,0 -1.91599,1.40566 -1.91599,1.40566 v 0 c -0.95373,0.0432 -1.90713,0.0925 -2.85978,0.15562 -2.68432,0.0986 -5.37015,0.0428 -8.05549,0.0284 -9.57328,-0.0538 -19.14685,-0.0863 -28.72025,-0.0473 -7.28465,0.004 -14.56947,0.0257 -21.85372,0.10629 0,0 1.91684,-1.39268 1.91684,-1.39268 z"
       inkscape:connector-curvature="0"
       style="stroke-width:0.26458332" />
    <path
       id="path3769"
       d="m 214.08706,141.38901 c 0.53068,0.039 1.94995,-0.0971 1.8997,0.80453 -0.0255,0.45654 -0.43001,0.86745 -0.67242,1.19178 -0.72803,0.82669 -1.58228,1.52551 -2.43715,2.2145 0,0 -2.20138,0.88295 -2.20138,0.88295 v 0 c 0.85803,-0.67617 1.71294,-1.36367 2.46019,-2.16433 0.0797,-0.0966 0.95474,-0.97704 0.70534,-1.24134 -0.35642,-0.37774 -1.2401,-0.23565 -1.69175,-0.28043 0,0 1.93747,-1.40766 1.93747,-1.40766 z"
       inkscape:connector-curvature="0"
       style="stroke-width:0.26458332" />
    <path
       id="path3771"
       d="m 151.41383,143.67811 c -0.23402,0.10674 -0.4711,0.20701 -0.70207,0.3202 -0.17304,0.0848 -1.53244,0.79839 -1.68821,0.88174 -0.26374,0.14112 -1.04401,0.58407 -0.78783,0.42964 2.72681,-1.64382 1.16285,-0.64944 0.71857,-0.36248 -0.0974,0.0745 -0.69271,0.5018 -0.78131,0.66307 -0.21133,0.3847 1.40181,0.92369 1.55556,0.98395 1.47489,0.47213 2.98565,0.81586 4.47608,1.23388 0,0 -1.9406,1.32905 -1.9406,1.32905 v 0 c -1.49556,-0.43509 -3.01152,-0.7925 -4.50265,-1.24306 -0.40945,-0.16052 -1.97478,-0.67659 -1.80055,-1.38476 0.0366,-0.14888 0.72812,-0.67555 0.78108,-0.7186 2.07697,-1.37807 4.29775,-2.55044 6.54871,-3.61747 0,0 -1.87678,1.48484 -1.87678,1.48484 z"
       inkscape:connector-curvature="0"
       style="stroke-width:0.26458332" />
    <text
       xml:space="preserve"
       style="font-style:normal;font-weight:normal;font-size:7.05555556px;line-height:1.25;font-family:sans-serif;letter-spacing:0px;word-spacing:0px;fill:#000000;fill-opacity:1;stroke:none;stroke-width:0.26458332"
       x="2.1086848"
       y="149.87874"
       id="text3775"><tspan
         sodipodi:role="line"
         id="tspan3777"
         x="2.1086848"
         y="149.87874">Smartphone</tspan></text>
    <text
       xml:space="preserve"
       style="font-style:normal;font-weight:normal;font-size:7.05555534px;line-height:1.25;font-family:sans-serif;letter-spacing:0px;word-spacing:0px;fill:#000000;fill-opacity:1;stroke:none;stroke-width:0.26458332"
       x="16.058439"
       y="287.59204"
       id="text3781"><tspan
         sodipodi:role="line"
         id="tspan3779"
         x="16.058439"
         y="287.59204"
         style="stroke-width:0.26458332">Computer</tspan></text>
    <text
       xml:space="preserve"
       style="font-style:normal;font-weight:normal;font-size:7.05555534px;line-height:1.25;font-family:sans-serif;letter-spacing:0px;word-spacing:0px;fill:#000000;fill-opacity:1;stroke:none;stroke-width:0.26458332"
       x="118.57291"
       y="153.93391"
       id="text3785"><tspan
         sodipodi:role="line"
         id="tspan3783"
         x="118.57291"
         y="153.93391"
         style="stroke-width:0.26458332">Mail-</tspan><tspan
         sodipodi:role="line"
         x="118.57291"
         y="162.75336"
         style="stroke-width:0.26458332"
         id="tspan3787">Server</tspan></text>
    <text
       xml:space="preserve"
       style="font-style:normal;font-weight:normal;font-size:7.05555534px;line-height:1.25;font-family:sans-serif;letter-spacing:0px;word-spacing:0px;fill:#000000;fill-opacity:1;stroke:none;stroke-width:0.26458332"
       x="217.23434"
       y="154.74982"
       id="text3785-4"><tspan
         sodipodi:role="line"
         id="tspan3783-0"
         x="217.23434"
         y="154.74982"
         style="stroke-width:0.26458332">Mail-</tspan><tspan
         sodipodi:role="line"
         x="217.23434"
         y="163.56926"
         style="stroke-width:0.26458332"
         id="tspan3787-5">Server</tspan></text>
  </g>
</svg>
